<svg xmlns="http://www.w3.org/2000/svg" viewBox="0 0 40 40" fill="none" role="img" aria-label="TagVolt">
  <g transform="rotate(8 20 20)"><path d="M20 8 A 12 12 0 0 1 29 12.2" stroke="#FF6B00" stroke-width="5.5" stroke-linecap="round"/><path d="M27 8.4 L 33 11.7 L 27.6 16 Z" fill="#FF6B00"/></g>
  <g transform="rotate(98 20 20)"><path d="M20 8 A 12 12 0 0 1 29 12.2" stroke="#0A84FF" stroke-width="5.5" stroke-linecap="round"/><path d="M27 8.4 L 33 11.7 L 27.6 16 Z" fill="#0A84FF"/></g>
  <g transform="rotate(188 20 20)"><path d="M20 8 A 12 12 0 0 1 29 12.2" stroke="#FF6B00" stroke-width="5.5" stroke-linecap="round"/><path d="M27 8.4 L 33 11.7 L 27.6 16 Z" fill="#FF6B00"/></g>
  <g transform="rotate(278 20 20)"><path d="M20 8 A 12 12 0 0 1 29 12.2" stroke="#0A84FF" stroke-width="5.5" stroke-linecap="round"/><path d="M27 8.4 L 33 11.7 L 27.6 16 Z" fill="#0A84FF"/></g>
</svg>
